HIERARCHY
ROOT joint_0
{
	OFFSET 0.000000 0.000000 0.000000
	CHANNELS 6 Xposition Yposition Zposition Zrotation Yrotation Xrotation 
	JOINT joint_1
	{
		OFFSET 13.542969 -4.074463 123.986084
		CHANNELS 3 Zrotation Yrotation Xrotation
		JOINT joint_2
		{
			OFFSET -0.108154 -3.018066 113.860962
			CHANNELS 3 Zrotation Yrotation Xrotation
			JOINT joint_3
			{
				OFFSET -1.139648 -3.876465 113.702026
				CHANNELS 3 Zrotation Yrotation Xrotation
				JOINT joint_4
				{
					OFFSET 13.593506 -8.582153 160.876953
					CHANNELS 3 Zrotation Yrotation Xrotation
					JOINT joint_5
					{
						OFFSET 26.480957 -11.565674 94.427979
						CHANNELS 3 Zrotation Yrotation Xrotation
						End Site
						{
							OFFSET 0.000000 0.000000 0.000000
						}
					}
				}
				JOINT joint_6
				{
					OFFSET 3.003662 -39.658691 88.713989
					CHANNELS 3 Zrotation Yrotation Xrotation
					JOINT joint_7
					{
						OFFSET -25.253906 -162.506348 -28.477051
						CHANNELS 3 Zrotation Yrotation Xrotation
						JOINT joint_8
						{
							OFFSET 23.083252 -8.502686 -295.281982
							CHANNELS 3 Zrotation Yrotation Xrotation
							JOINT joint_9
							{
								OFFSET 20.205566 -32.167908 -263.458008
								CHANNELS 3 Zrotation Yrotation Xrotation
								End Site
								{
									OFFSET 0.000000 0.000000 0.000000
								}
							}
						}
					}
				}
				JOINT joint_10
				{
					OFFSET 12.313232 30.012939 91.642944
					CHANNELS 3 Zrotation Yrotation Xrotation
					JOINT joint_11
					{
						OFFSET 31.960205 162.667969 -19.398926
						CHANNELS 3 Zrotation Yrotation Xrotation
						JOINT joint_12
						{
							OFFSET 51.325195 40.249023 -289.038086
							CHANNELS 3 Zrotation Yrotation Xrotation
							JOINT joint_13
							{
								OFFSET 70.170898 60.433594 -249.556030
								CHANNELS 3 Zrotation Yrotation Xrotation
								End Site
								{
									OFFSET 0.000000 0.000000 0.000000
								}
							}
						}
					}
				}
			}
		}
	}
	JOINT joint_14
	{
		OFFSET -15.093262 -91.803833 -113.326904
		CHANNELS 3 Zrotation Yrotation Xrotation
		JOINT joint_15
		{
			OFFSET 2.288818 -12.306763 -494.206055
			CHANNELS 3 Zrotation Yrotation Xrotation
			JOINT joint_16
			{
				OFFSET -54.691650 0.383423 -424.447006
				CHANNELS 3 Zrotation Yrotation Xrotation
				JOINT joint_17
				{
					OFFSET 202.154297 -21.791382 -80.181999
					CHANNELS 3 Zrotation Yrotation Xrotation
					End Site
					{
						OFFSET 0.000000 0.000000 0.000000
					}
				}
			}
		}
	}
	JOINT joint_18
	{
		OFFSET 10.704102 91.957275 -113.713013
		CHANNELS 3 Zrotation Yrotation Xrotation
		JOINT joint_19
		{
			OFFSET 0.427490 1.374878 -494.359924
			CHANNELS 3 Zrotation Yrotation Xrotation
			JOINT joint_20
			{
				OFFSET -53.071777 2.769531 -424.643028
				CHANNELS 3 Zrotation Yrotation Xrotation
				JOINT joint_21
				{
					OFFSET 200.264648 -28.253052 -82.862999
					CHANNELS 3 Zrotation Yrotation Xrotation
					End Site
					{
						OFFSET 0.000000 0.000000 0.000000
					}
				}
			}
		}
	}
}
MOTION
Frames: 13
Frame Time: 0.016667
-3015.923584 1425.193481 1134.123047 20.289703 2.116708 4.076819 2.450944 1.621844 -1.887522 2.347444 -0.421815 0.574745 2.350182 0.243910 -0.286064 -0.337576 -1.791116 0.353529 0.000000 0.000000 0.000000 6.467212 1.973321 1.722688 -3.609288 5.492796 -8.792621 -2.641801 9.087577 1.752348 0.000000 0.000000 0.000000 -0.211778 0.804447 1.735695 0.813855 1.602507 0.167224 2.056761 3.896797 3.180794 0.000000 0.000000 0.000000 -6.190771 -15.776638 -4.314316 -4.958623 42.981798 3.564146 1.565755 -3.260630 0.190077 0.000000 0.000000 0.000000 -4.838083 -3.279749 -1.706547 -4.458778 2.688105 -3.419390 -4.657320 0.661372 -1.795190 0.000000 0.000000 0.000000 
-3003.508789 1426.760132 1134.256958 20.676507 2.200185 4.179229 2.318133 1.874333 -1.984885 2.213860 -0.469220 0.587163 2.230176 0.305383 -0.291812 -0.360760 -1.759219 0.461276 0.000000 0.000000 0.000000 6.529028 1.701518 2.091195 -3.528634 5.423366 -9.396484 -2.516890 8.626614 0.906061 0.000000 0.000000 0.000000 -0.290691 0.839987 1.688078 1.059722 1.474185 1.008864 2.484509 4.408556 4.250744 0.000000 0.000000 0.000000 -4.903223 -17.777910 -5.027736 -2.904584 44.817005 6.241949 7.189453 -3.902931 2.083303 0.000000 0.000000 0.000000 -4.885304 -2.585918 -1.786603 -4.525648 2.447662 -3.297377 -4.712405 0.573104 -1.825827 0.000000 0.000000 0.000000 
-2990.843018 1428.047241 1134.729980 21.054394 2.306235 4.291058 2.152266 2.047803 -2.093325 2.065722 -0.490339 0.599034 2.098008 0.337192 -0.301808 -0.366101 -1.632754 0.554145 0.000000 0.000000 0.000000 6.403508 1.333955 2.327707 -3.481261 5.205007 -10.070407 -2.407161 8.258845 0.309110 0.000000 0.000000 0.000000 -0.393655 0.920216 1.754767 1.259956 1.425648 1.764517 2.867354 4.849432 5.241129 0.000000 0.000000 0.000000 -4.355720 -19.813319 -5.472297 -1.626013 45.661415 7.955719 10.865196 -4.529767 3.292527 0.000000 0.000000 0.000000 -4.907013 -1.849466 -1.867486 -4.596766 2.075131 -3.123173 -4.769272 0.528716 -1.851891 0.000000 0.000000 0.000000 
-2977.918213 1429.063965 1135.479980 21.406625 2.422704 4.385732 1.959110 2.161532 -2.178743 1.900835 -0.493437 0.602285 1.949881 0.353892 -0.310612 -0.358468 -1.437206 0.632424 0.000000 0.000000 0.000000 6.147210 0.879063 2.488353 -3.447869 4.862236 -10.794527 -2.304378 7.945065 -0.177001 0.000000 0.000000 0.000000 -0.499155 1.031924 1.882938 1.430196 1.422557 2.467793 3.216847 5.248162 6.148032 0.000000 0.000000 0.000000 -4.057747 -21.821381 -5.749982 -0.616520 45.671095 9.229355 13.469343 -5.194017 4.129644 0.000000 0.000000 0.000000 -4.906920 -1.064283 -1.917438 -4.667105 1.599341 -2.912852 -4.823471 0.531037 -1.870811 0.000000 0.000000 0.000000 
-2964.729492 1430.003906 1136.276001 21.720504 2.538204 4.447084 1.750667 2.233198 -2.195086 1.719552 -0.487818 0.587630 1.783364 0.363566 -0.310341 -0.351075 -1.269195 0.693573 0.000000 0.000000 0.000000 5.852269 0.392291 2.573571 -3.404557 4.459670 -11.542729 -2.181905 7.586206 -0.598562 0.000000 0.000000 0.000000 -0.585683 1.172425 2.035322 1.568895 1.455078 3.125367 3.500068 5.616234 6.802261 0.000000 0.000000 0.000000 -3.888160 -23.657503 -5.950898 0.209986 44.900320 10.091673 15.000022 -5.853628 4.604603 0.000000 0.000000 0.000000 -4.898706 -0.313892 -1.920858 -4.733589 1.225253 -2.692079 -4.871153 0.546786 -1.885437 0.000000 0.000000 0.000000 
-2951.368652 1430.938843 1137.161987 21.987350 2.667031 4.459788 1.523610 2.271869 -2.117518 1.508331 -0.475390 0.553580 1.582071 0.370897 -0.294476 -0.345589 -1.177269 0.723815 0.000000 0.000000 0.000000 5.525660 -0.155994 2.580955 -3.347835 3.970768 -12.332013 -2.040378 7.157963 -1.067769 0.000000 0.000000 0.000000 -0.627666 1.337591 2.230934 1.677592 1.530180 3.715748 3.708605 5.986032 7.109804 0.000000 0.000000 0.000000 -3.897121 -25.318282 -6.070046 0.761357 43.372284 10.423151 15.155500 -6.398843 4.623538 0.000000 0.000000 0.000000 -4.870405 0.401554 -1.877185 -4.779771 0.911390 -2.445491 -4.895658 0.643417 -1.879615 0.000000 0.000000 0.000000 
-2937.743652 1431.796875 1138.094971 22.226585 2.789180 4.445332 1.287448 2.281176 -1.983019 1.275706 -0.463194 0.511681 1.353067 0.374792 -0.270983 -0.337257 -1.113854 0.729689 0.000000 0.000000 0.000000 5.157394 -0.750097 2.537592 -3.287440 3.414917 -13.161660 -1.879015 6.670517 -1.452994 0.000000 0.000000 0.000000 -0.650255 1.527610 2.469096 1.755231 1.651054 4.231290 3.852735 6.316481 7.168900 0.000000 0.000000 0.000000 -4.011728 -26.741224 -6.089824 1.094210 41.043105 10.293216 14.226600 -6.738732 4.288111 0.000000 0.000000 0.000000 -4.843309 1.086041 -1.798816 -4.821580 0.698249 -2.183794 -4.912509 0.758199 -1.868131 0.000000 0.000000 0.000000 
-2923.575684 1432.557129 1138.711060 22.424848 2.870110 4.433192 1.078033 2.213615 -1.833240 1.070930 -0.432326 0.468072 1.148224 0.370817 -0.247717 -0.328777 -1.034133 0.739075 0.000000 0.000000 0.000000 4.823542 -1.258856 2.457130 -3.222206 2.929671 -13.969482 -1.675400 6.108248 -1.446783 0.000000 0.000000 0.000000 -0.701863 1.740325 2.687840 1.796184 1.800038 4.689608 3.926297 6.503157 7.104751 0.000000 0.000000 0.000000 -3.953481 -27.741414 -6.074633 1.492253 37.866923 9.947489 13.026243 -6.864884 3.876816 0.000000 0.000000 0.000000 -4.859979 1.639347 -1.683310 -4.888438 0.917941 -1.968677 -4.954305 0.649386 -1.897423 0.000000 0.000000 0.000000 
-2908.820312 1433.194458 1139.152954 22.546362 2.943205 4.406735 0.905947 2.023708 -1.640617 0.910242 -0.369255 0.404788 0.984107 0.355282 -0.224393 -0.320897 -0.954448 0.747640 0.000000 0.000000 0.000000 4.565498 -1.650218 2.313850 -3.165894 2.556633 -14.785652 -1.416274 5.478225 -0.821855 0.000000 0.000000 0.000000 -0.794112 1.982667 2.872831 1.795765 1.982490 5.088862 3.921607 6.498900 6.949865 0.000000 0.000000 0.000000 -3.487534 -28.223953 -6.043593 2.198243 33.416864 9.355250 11.848511 -6.955655 3.476186 0.000000 0.000000 0.000000 -4.924750 2.036929 -1.532804 -4.982862 1.572301 -1.756417 -5.018780 0.336967 -1.963704 0.000000 0.000000 0.000000 
-2893.521973 1433.733765 1139.277954 22.702475 2.926989 4.405910 0.739194 1.843813 -1.463098 0.746739 -0.332723 0.351156 0.813132 0.333814 -0.201557 -0.313523 -0.858154 0.762692 0.000000 0.000000 0.000000 4.344342 -1.959145 2.117501 -3.129730 2.253743 -15.577506 -1.141093 4.803392 0.180966 0.000000 0.000000 0.000000 -0.915961 2.241357 3.047688 1.756972 2.195026 5.415181 3.844102 6.343522 6.691835 0.000000 0.000000 0.000000 -2.874647 -28.113091 -5.999297 2.926523 27.925308 8.237038 10.352383 -6.423910 3.023345 0.000000 0.000000 0.000000 -5.059557 2.343545 -1.380079 -5.130788 2.658141 -1.582215 -5.132591 -0.145709 -2.072254 0.000000 0.000000 0.000000 
-2877.538818 1434.231934 1138.295044 22.970229 2.693143 4.491654 0.583694 1.753116 -1.399267 0.585149 -0.346767 0.350623 0.643249 0.317396 -0.181856 -0.306365 -0.652377 0.820414 0.000000 0.000000 0.000000 4.118587 -2.132820 1.894762 -3.085198 2.041669 -16.162035 -0.891893 4.100389 1.143038 0.000000 0.000000 0.000000 -1.082764 2.480423 3.203984 1.690358 2.402762 5.668570 3.712341 6.067549 6.393814 0.000000 0.000000 0.000000 -2.486725 -27.454566 -5.937232 3.264377 22.556907 6.709056 8.541975 -4.531824 2.594111 0.000000 0.000000 0.000000 -5.289223 2.533247 -1.211112 -5.360668 4.497599 -1.641587 -5.332826 -1.014459 -2.266655 0.000000 0.000000 0.000000 
-2860.464600 1434.775757 1135.843018 23.226192 2.300488 4.586611 0.494811 1.527987 -1.292026 0.498203 -0.289969 0.311203 0.546499 0.280208 -0.171716 -0.291377 -0.257620 0.922067 0.000000 0.000000 0.000000 3.864507 -2.065244 1.601851 -2.977637 1.982595 -16.383237 -0.652737 3.298748 1.925833 0.000000 0.000000 0.000000 -1.345600 2.723253 3.410944 1.577655 2.661109 5.794291 3.515810 5.631226 6.059546 0.000000 0.000000 0.000000 -2.383570 -26.207349 -5.659976 3.015234 17.011168 4.755292 6.173619 -0.563043 2.187157 0.000000 0.000000 0.000000 -5.579104 2.539209 -0.913987 -5.639908 7.239778 -2.025395 -5.575700 -2.431419 -2.551302 0.000000 0.000000 0.000000 
-2842.705811 1435.277222 1132.282959 23.557076 1.717880 4.680203 0.426990 1.334903 -1.139727 0.426251 -0.240944 0.237949 0.463989 0.227431 -0.161129 -0.279292 0.243262 1.068446 0.000000 0.000000 0.000000 3.612095 -1.840632 1.251641 -2.840898 2.029860 -16.371766 -0.427632 2.452156 2.649287 0.000000 0.000000 0.000000 -1.651963 2.942628 3.612442 1.437736 2.917708 5.837600 3.262752 5.076344 5.685242 0.000000 0.000000 0.000000 -2.512762 -24.474268 -5.248581 2.338668 11.511069 2.654136 3.790128 4.663665 1.911247 0.000000 0.000000 0.000000 -5.983691 2.431980 -0.503954 -6.027645 10.671935 -2.699896 -5.898678 -4.002115 -2.883681 0.000000 0.000000 0.000000 
